. 
  
http://www.torrentday.com/        :     The Hottest Private Tracker On The Net!!!


To Avoid Fakes, ALWAYS Check That The Torrent Was Added By: TvTeam.


               www . TorrentDay . Com 
(((((((((((((= Enjoy No RAR releases =))))))))))))))))))))

...................................NFO:....................................

.                                         
                                                                               
                                                                                
                                                              
                                                                           
                                                                           
                                                   
                                                                             
                                                                               
                                                  
                                                               
                                                         
                                                                                  
                                                                           
                                                                     
                                                                  
                                                                       
                                                                           
                                                                           
                                                                   
                                                               
                                                                 
                                           
                                                        
                                                               
                           _        _______          
                          ( (    /|(  ____ )|     /|
                          |    ( || (    )|| )   ( |
                          |    | || (____)|| | _ | |
                          | ( ) ||  _____)| |( )| |
                          | |    || (      | || || |
                          | )    || )      | () () |
                          |/    )_)|/       (_______)

 

                               _________ ______            ______  
             |     /||     /|__   __/(  __   |     /|(  __   
             (    / )| )   ( |   ) (   | (    )| )   ( || (    )
               (_) / | |   | |   | |   | |   ) || (___) || |   ) |
               ) _ (  ( (   ) )   | |   | |   | ||  ___  || |   | |
              / ( )    _/ /    | |   | |   ) || (   ) || |   ) |
             ( /    )     /  ___) (___| (__/  )| )   ( || (__/  )
             |/     |   _/   _______/(______/ |/     |(______/ 
                                                                   
                       ______   _______  _______  _______ 
                      / ___   / ___   )(  __   )(  ____ )
                      /   )  )/   )  || (  )  || (    )|
                          /  /     /   )| | /   || (____)|
                         /  /    _/   / | (/ /) ||  _____)
                        /  /    /   _/  |   / | || (      
                       /  /    (   (__/|  (__) || )      
                       _/     _______/(_______)|/       
                       
           
-==Our releases are True HD Xvid in 5.1 sound and work on computers, Xbox 360, PS3, WDHD TV and some upscaling dvd players.==-


Source: Saturday.Night.Live.The.Women.of.SNL.720p.HDTV.x264-BAJSKORV

General
Complete name                    : Saturday Night Live The Women of SNL HDTV MP4 720p-NPW.mp4
Format                           : MPEG-4
Format profile                   : Base Media
Codec ID                         : isom
File size                        : 1.77 GiB
Duration                         : 1h 24mn
Overall bit rate                 : 2 991 Kbps
Movie name                       : Saturday.Night.Live.The.Women.of.SNL.720p.HDTV.x264-BAJSKORV.mp4
Performer                        : Avidemux
Writing application              : Lavf52.61.0

Video
ID                               : 1
Format                           : AVC
Format/Info                      : Advanced Video Codec
Format profile                   : High@L3.1
Format settings, CABAC           : Yes
Format settings, ReFrames        : 3 frames
Codec ID                         : avc1
Codec ID/Info                    : Advanced Video Coding
Duration                         : 1h 24mn
Bit rate mode                    : Variable
Bit rate                         : 2 600 Kbps
Width                            : 1 280 pixels
Height                           : 720 pixels
Display aspect ratio             : 16:9
Frame rate mode                  : Constant
Frame rate                       : 29.970 fps
Resolution                       : 24 bits
Colorimetry                      : 4:2:0
Scan type                        : Progressive
Bits/(Pixel*Frame)               : 0.094
Stream size                      : 1.54 GiB (87%)
Writing library                  : x264 core 98 Ubuntu_2:0.98.1653+git88b90d9-3


Audio
ID                               : 2
Format                           : AAC
Format/Info                      : Advanced Audio Codec
Format version                   : Version 4
Format profile                   : LC
Format settings, SBR             : No
Codec ID                         : 40
Duration                         : 1h 24mn
Bit rate mode                    : Variable
Bit rate                         : 384 Kbps
Channel(s)                       : 6 channels
Channel positions                : Front: L C R, Rear: L R, LFE
Sampling rate                    : 48.0 KHz
Resolution                       : 16 bits
Stream size                      : 233 MiB (13%)